<svg xmlns="http://www.w3.org/2000/svg" width="98.743" height="98.743" viewBox="0 0 98.743 98.743">
  <g id="Flat" transform="translate(-24 -24)">
    <rect id="Rectangle_432" data-name="Rectangle 432" width="98.637" height="71.476" rx="32" transform="translate(24.106 34.113)" fill="#324f66"/>
    <path id="Path_254" data-name="Path 254" d="M432,72h5.107v61.289H432Z" transform="translate(-321.175 -37.785)" fill="#2d475c"/>
    <path id="Path_255" data-name="Path 255" d="M115.933,370.215H30.81A6.81,6.81,0,0,1,24,363.4V360h98.743v3.4A6.81,6.81,0,0,1,115.933,370.215Z" transform="translate(0 -264.497)" fill="#426887"/>
    <path id="Path_256" data-name="Path 256" d="M219.239,425.025H192l3.575-11.917L197.107,408h17.025l1.532,5.107Z" transform="translate(-132.248 -302.282)" fill="#3c6180"/>
    <path id="Path_257" data-name="Path 257" d="M168,464h37.454v5.107H168Z" transform="translate(-113.356 -346.365)" fill="#426887"/>
    <path id="Path_258" data-name="Path 258" d="M149.8,24H85.107A5.107,5.107,0,0,0,80,29.107V95.5h74.908v-66.4A5.107,5.107,0,0,0,149.8,24Z" transform="translate(-44.083 0)" fill="#4db6e4"/>
    <path id="Path_259" data-name="Path 259" d="M80,336h74.908v5.107H80Z" transform="translate(-44.083 -245.604)" fill="#4aafdb"/>
    <g id="Group_294" data-name="Group 294" transform="translate(41.025 29.107)">
      <path id="Path_260" data-name="Path 260" d="M104,48h3.4v3.4H104Z" transform="translate(-104 -48)" fill="#3ba5d3"/>
      <path id="Path_261" data-name="Path 261" d="M136,48h3.4v3.4H136Z" transform="translate(-129.19 -48)" fill="#3ba5d3"/>
      <path id="Path_262" data-name="Path 262" d="M168,48h3.4v3.4H168Z" transform="translate(-154.38 -48)" fill="#3ba5d3"/>
      <path id="Path_263" data-name="Path 263" d="M125.342,281.456a34.362,34.362,0,0,1-10.279-11.635l3-1.615a30.936,30.936,0,0,0,9.255,10.476Z" transform="translate(-112.709 -221.345)" fill="#3ba5d3"/>
      <path id="Path_264" data-name="Path 264" d="M332.481,70.778a30.767,30.767,0,0,0-12.107-10.887l1.524-3.044a34.168,34.168,0,0,1,13.449,12.092Z" transform="translate(-274.328 -54.964)" fill="#3ba5d3"/>
      <path id="Path_265" data-name="Path 265" d="M104,80h11.917v3.4H104Z" transform="translate(-104 -73.19)" fill="#3ba5d3"/>
    </g>
    <path id="Path_266" data-name="Path 266" d="M228.889,413.107H208.8L210.332,408h17.025Z" transform="translate(-145.473 -302.282)" fill="#395d7b"/>
    <path id="Path_267" data-name="Path 267" d="M201.371,116.43H198.6a1.7,1.7,0,0,1-1.619-1.181,20.326,20.326,0,0,0-1.257-3.026,1.692,1.692,0,0,1,.318-1.966L198,108.295a1.7,1.7,0,0,0,0-2.407l-4.815-4.815a1.7,1.7,0,0,0-2.407,0l-1.962,1.962a1.692,1.692,0,0,1-1.966.318,20.274,20.274,0,0,0-3.026-1.257,1.7,1.7,0,0,1-1.181-1.619V97.7a1.7,1.7,0,0,0-1.7-1.7h-6.81a1.7,1.7,0,0,0-1.7,1.7v2.772a1.7,1.7,0,0,1-1.181,1.619,20.284,20.284,0,0,0-3.026,1.257,1.692,1.692,0,0,1-1.966-.318l-1.962-1.962a1.7,1.7,0,0,0-2.408,0l-4.815,4.815a1.7,1.7,0,0,0,0,2.407l1.962,1.962a1.692,1.692,0,0,1,.318,1.966,20.285,20.285,0,0,0-1.257,3.026,1.7,1.7,0,0,1-1.619,1.181H153.7a1.7,1.7,0,0,0-1.7,1.7v6.81a1.7,1.7,0,0,0,1.7,1.7h2.772a1.7,1.7,0,0,1,1.619,1.181,20.284,20.284,0,0,0,1.257,3.026,1.692,1.692,0,0,1-.318,1.966l-1.962,1.962a1.7,1.7,0,0,0,0,2.408L161.887,142a1.7,1.7,0,0,0,2.408,0l1.962-1.962a1.692,1.692,0,0,1,1.966-.317,20.285,20.285,0,0,0,3.026,1.257,1.7,1.7,0,0,1,1.181,1.619v2.772a1.7,1.7,0,0,0,1.7,1.7h6.81a1.7,1.7,0,0,0,1.7-1.7V142.6a1.7,1.7,0,0,1,1.181-1.619,20.269,20.269,0,0,0,3.026-1.257,1.692,1.692,0,0,1,1.966.318L190.779,142a1.7,1.7,0,0,0,2.407,0L198,137.187a1.7,1.7,0,0,0,0-2.408l-1.962-1.962a1.692,1.692,0,0,1-.318-1.966,20.329,20.329,0,0,0,1.257-3.026,1.7,1.7,0,0,1,1.619-1.181h2.772a1.7,1.7,0,0,0,1.7-1.7v-6.81A1.7,1.7,0,0,0,201.371,116.43Zm-23.834,11.917a6.81,6.81,0,1,1,6.81-6.81A6.81,6.81,0,0,1,177.537,128.347Z" transform="translate(-100.761 -56.678)" fill="#4aafdb"/>
    <path id="Path_268" data-name="Path 268" d="M185.371,100.43H182.6a1.7,1.7,0,0,1-1.619-1.181,20.319,20.319,0,0,0-1.257-3.026,1.692,1.692,0,0,1,.318-1.966L182,92.295a1.7,1.7,0,0,0,0-2.407l-4.815-4.815a1.7,1.7,0,0,0-2.407,0l-1.962,1.962a1.692,1.692,0,0,1-1.966.318,20.3,20.3,0,0,0-3.026-1.257,1.7,1.7,0,0,1-1.181-1.619V81.7a1.7,1.7,0,0,0-1.7-1.7h-6.81a1.7,1.7,0,0,0-1.7,1.7v2.772a1.7,1.7,0,0,1-1.181,1.619,20.306,20.306,0,0,0-3.026,1.257,1.692,1.692,0,0,1-1.966-.318l-1.962-1.962a1.7,1.7,0,0,0-2.407,0l-4.815,4.815a1.7,1.7,0,0,0,0,2.407l1.962,1.962a1.692,1.692,0,0,1,.318,1.966,20.27,20.27,0,0,0-1.257,3.026,1.7,1.7,0,0,1-1.619,1.181H137.7a1.7,1.7,0,0,0-1.7,1.7v6.81a1.7,1.7,0,0,0,1.7,1.7h2.772a1.7,1.7,0,0,1,1.619,1.181,20.282,20.282,0,0,0,1.257,3.026,1.692,1.692,0,0,1-.318,1.966l-1.962,1.962a1.7,1.7,0,0,0,0,2.408L145.887,126a1.7,1.7,0,0,0,2.407,0l1.962-1.962a1.692,1.692,0,0,1,1.966-.318,20.306,20.306,0,0,0,3.026,1.257,1.7,1.7,0,0,1,1.181,1.619v2.772a1.7,1.7,0,0,0,1.7,1.7h6.81a1.7,1.7,0,0,0,1.7-1.7V126.6a1.7,1.7,0,0,1,1.181-1.619,20.3,20.3,0,0,0,3.026-1.257,1.692,1.692,0,0,1,1.966.318L174.779,126a1.7,1.7,0,0,0,2.407,0L182,121.187a1.7,1.7,0,0,0,0-2.408l-1.962-1.962a1.692,1.692,0,0,1-.318-1.966,20.319,20.319,0,0,0,1.257-3.026,1.7,1.7,0,0,1,1.619-1.181h2.772a1.7,1.7,0,0,0,1.7-1.7v-6.81A1.7,1.7,0,0,0,185.371,100.43Zm-23.834,11.917a6.81,6.81,0,1,1,6.81-6.81A6.81,6.81,0,0,1,161.537,112.347Z" transform="translate(-88.166 -44.083)" fill="#e25740"/>
    <path id="Path_269" data-name="Path 269" d="M199.308,186.516a15.317,15.317,0,0,1-13.2-23.1l2.932,1.732a11.919,11.919,0,0,0,18.7,14.481l2.408,2.408A15.275,15.275,0,0,1,199.308,186.516Z" transform="translate(-125.937 -109.747)" fill="#d64a34"/>
    <path id="Path_270" data-name="Path 270" d="M229.122,151.1l-2.932-1.732a11.919,11.919,0,0,0-18.7-14.481l-2.408-2.408A15.324,15.324,0,0,1,229.121,151.1Z" transform="translate(-142.55 -81.863)" fill="#d64a34"/>
    <path id="Path_271" data-name="Path 271" d="M301.115,309.62a4.256,4.256,0,0,0-4.256,4.256,4.256,4.256,0,0,0-8.512,0,4.256,4.256,0,0,0-8.512,0v-13.62a4.256,4.256,0,1,0-8.512,0v24.686l-7.136-7.136a4.7,4.7,0,0,0-3.323-1.376H260.7a4.7,4.7,0,0,0-3.123,8.21l13.745,12.219h34.049V313.876A4.256,4.256,0,0,0,301.115,309.62Z" transform="translate(-182.629 -214.116)" fill="#fdc8a2"/>
    <path id="Path_272" data-name="Path 272" d="M360,376h3.4v6.81H360Z" transform="translate(-264.497 -277.092)" fill="#fdb683"/>
    <path id="Path_273" data-name="Path 273" d="M400,376h3.4v6.81H400Z" transform="translate(-295.984 -277.092)" fill="#fdb683"/>
    <path id="Path_274" data-name="Path 274" d="M440,376h3.4v6.81H440Z" transform="translate(-327.472 -277.092)" fill="#fdb683"/>
  </g>
</svg>
