<svg xmlns="http://www.w3.org/2000/svg" width="100.205" height="98.743" viewBox="0 0 100.205 98.743">
  <g id="games" transform="translate(0 -3.737)">
    <g id="Group_270" data-name="Group 270" transform="translate(23.96 5.28)">
      <path id="Path_239" data-name="Path 239" d="M173.684,87.9l1.029-3.322V13.469a1.847,1.847,0,0,0-1.847-1.847h-48.6a1.847,1.847,0,0,0-1.847,1.847V84.574l1.029,3.322Z" transform="translate(-122.424 -11.622)" fill="#407093"/>
    </g>
    <g id="Group_271" data-name="Group 271" transform="translate(23.96 78.232)">
      <path id="Path_240" data-name="Path 240" d="M122.424,384.371v12.8a1.847,1.847,0,0,0,1.847,1.847h48.6a1.847,1.847,0,0,0,1.847-1.847v-12.8Z" transform="translate(-122.424 -384.371)" fill="#dae7ef"/>
    </g>
    <g id="Group_272" data-name="Group 272" transform="translate(69.439 5.28)">
      <path id="Path_241" data-name="Path 241" d="M359.761,11.623H354.8V87.9h5.782l1.029-3.322V13.47a1.847,1.847,0,0,0-1.847-1.847Z" transform="translate(-354.797 -11.623)" fill="#2b4d66"/>
    </g>
    <g id="Group_273" data-name="Group 273" transform="translate(23.96 78.232)">
      <path id="Path_242" data-name="Path 242" d="M167.9,384.371v5.988a1.847,1.847,0,0,1-1.847,1.847H122.424v4.964a1.847,1.847,0,0,0,1.847,1.847h48.6a1.847,1.847,0,0,0,1.847-1.847v-12.8H167.9Z" transform="translate(-122.424 -384.371)" fill="#c1d5e4"/>
    </g>
    <g id="Group_275" data-name="Group 275" transform="translate(22.417 3.737)">
      <g id="Group_274" data-name="Group 274" transform="translate(0 0)">
        <path id="Path_243" data-name="Path 243" d="M166.524,94.421h-48.6a3.394,3.394,0,0,1-3.39-3.39V7.127a3.394,3.394,0,0,1,3.39-3.39h48.6a3.394,3.394,0,0,1,3.39,3.39v83.9A3.394,3.394,0,0,1,166.524,94.421Zm-48.6-87.6a.3.3,0,0,0-.3.3v83.9a.3.3,0,0,0,.3.3h48.6a.3.3,0,0,0,.3-.3V7.127a.3.3,0,0,0-.3-.3Z" transform="translate(-114.538 -3.737)" fill="#98b9d3"/>
      </g>
    </g>
    <g id="Group_276" data-name="Group 276" transform="translate(56.071 26.939)">
      <path id="Path_244" data-name="Path 244" d="M330.09,177.651a12.5,12.5,0,0,0-.263-1.223l-6.1-23.087a11.9,11.9,0,0,0-2.469-4.706,11.9,11.9,0,0,1-1.826-2.884L309.7,123.978a3.816,3.816,0,0,0-1.481-1.69v21.158l1.095,3.5a6.171,6.171,0,0,1,.282,1.854l-.016,10.255a4.527,4.527,0,0,1-4.527,4.52h-.023a4.723,4.723,0,0,1-3.674-1.809c-1.577-2.012-3.914-5-3.914-5a7.2,7.2,0,0,0-10.1-1.235,2.2,2.2,0,0,0-.377,3.085l9.778,12.5a4.005,4.005,0,0,1,.828,2.468,8.145,8.145,0,0,0,6.384,7.931l4.249.941a.923.923,0,0,1,.724.9V196a1.829,1.829,0,0,0,1.83,1.83l18.046-.036a1.829,1.829,0,0,0,1.83-1.83V184.476a43.351,43.351,0,0,0-.539-6.825Z" transform="translate(-286.495 -122.288)" fill="#eaac9d"/>
    </g>
    <g id="Group_277" data-name="Group 277" transform="translate(31.032 17.056)">
      <circle id="Ellipse_604" data-name="Ellipse 604" cx="4.037" cy="4.037" r="4.037" transform="translate(0 0)" fill="#dd5790"/>
    </g>
    <g id="Group_278" data-name="Group 278" transform="translate(60.942 17.056)">
      <circle id="Ellipse_605" data-name="Ellipse 605" cx="4.037" cy="4.037" r="4.037" transform="translate(0 0)" fill="#dd5790"/>
    </g>
    <g id="Group_279" data-name="Group 279" transform="translate(31.032 30.775)">
      <circle id="Ellipse_606" data-name="Ellipse 606" cx="4.037" cy="4.037" r="4.037" fill="#dd5790"/>
    </g>
    <g id="Group_280" data-name="Group 280" transform="translate(45.862 44.288)">
      <circle id="Ellipse_607" data-name="Ellipse 607" cx="4.037" cy="4.037" r="4.037" fill="#dd5790"/>
    </g>
    <g id="Group_281" data-name="Group 281" transform="translate(45.646 17.154)">
      <path id="Path_245" data-name="Path 245" d="M236.076,73.1l-2.629,4.554a1.621,1.621,0,0,0,1.4,2.432h5.259a1.621,1.621,0,0,0,1.4-2.432L238.885,73.1A1.621,1.621,0,0,0,236.076,73.1Z" transform="translate(-233.228 -72.29)" fill="#f6e266"/>
    </g>
    <g id="Group_282" data-name="Group 282" transform="translate(60.727 30.872)">
      <path id="Path_246" data-name="Path 246" d="M313.131,143.2,310.5,147.75a1.621,1.621,0,0,0,1.4,2.432h5.259a1.621,1.621,0,0,0,1.4-2.432L315.94,143.2A1.621,1.621,0,0,0,313.131,143.2Z" transform="translate(-310.283 -142.385)" fill="#f6e266"/>
    </g>
    <g id="Group_283" data-name="Group 283" transform="translate(30.817 44.591)">
      <path id="Path_247" data-name="Path 247" d="M160.307,213.29l-2.629,4.554a1.621,1.621,0,0,0,1.4,2.432h5.259a1.621,1.621,0,0,0,1.4-2.432l-2.629-4.554a1.621,1.621,0,0,0-2.808,0Z" transform="translate(-157.459 -212.479)" fill="#f6e266"/>
    </g>
    <g id="Group_284" data-name="Group 284" transform="translate(43.584 84.656)">
      <path id="Path_248" data-name="Path 248" d="M234.192,420.28h-9.954a1.543,1.543,0,1,1,0-3.086h9.954a1.543,1.543,0,1,1,0,3.086Z" transform="translate(-222.694 -417.194)" fill="#407093"/>
    </g>
    <g id="Group_285" data-name="Group 285" transform="translate(60.084 45.719)">
      <path id="Path_249" data-name="Path 249" d="M315.81,224.913h-7.835a.979.979,0,0,1-.979-.979v-4.711a.979.979,0,0,1,.979-.979h7.835a.979.979,0,0,1,.979.979v4.711A.979.979,0,0,1,315.81,224.913Z" transform="translate(-306.997 -218.245)" fill="#61a2f9"/>
    </g>
    <g id="Group_286" data-name="Group 286" transform="translate(45.005 31.478)">
      <path id="Path_250" data-name="Path 250" d="M238.766,152.148h-7.835a.979.979,0,0,1-.979-.979v-4.711a.979.979,0,0,1,.979-.979h7.835a.979.979,0,0,1,.979.979v4.711A.979.979,0,0,1,238.766,152.148Z" transform="translate(-229.953 -145.48)" fill="#61a2f9"/>
    </g>
    <g id="Group_287" data-name="Group 287" transform="translate(77.793 26.939)">
      <path id="Path_251" data-name="Path 251" d="M419.354,177.651a12.469,12.469,0,0,0-.263-1.223L413,153.341a11.9,11.9,0,0,0-2.469-4.706,11.9,11.9,0,0,1-1.826-2.884l-9.738-21.773a3.816,3.816,0,0,0-1.481-1.69v8.251l6.8,15.212a11.9,11.9,0,0,0,1.826,2.884,11.9,11.9,0,0,1,2.469,4.706l6.1,23.087a12.505,12.505,0,0,1,.263,1.223,43.4,43.4,0,0,1,.54,6.825v11.487a1.829,1.829,0,0,1-1.83,1.83l-13.8.028c.056.005.112.009.17.009l18.046-.036a1.829,1.829,0,0,0,1.83-1.83V184.476a43.4,43.4,0,0,0-.54-6.824Z" transform="translate(-397.481 -122.288)" fill="#df9380"/>
    </g>
    <g id="Group_288" data-name="Group 288" transform="translate(0 26.937)">
      <path id="Path_252" data-name="Path 252" d="M43.29,155.519a7.2,7.2,0,0,0-10.1,1.235s-2.338,2.99-3.914,5a4.723,4.723,0,0,1-3.674,1.809H25.58a4.527,4.527,0,0,1-4.527-4.52l-.016-10.255a6.169,6.169,0,0,1,.282-1.854l1.1-3.511V122.277a3.817,3.817,0,0,0-1.484,1.692l-9.738,21.773a11.9,11.9,0,0,1-1.826,2.884A11.9,11.9,0,0,0,6.9,153.332L.8,176.419a12.5,12.5,0,0,0-.263,1.223A43.424,43.424,0,0,0,0,184.467v11.487a1.829,1.829,0,0,0,1.83,1.83l18.046.036a1.829,1.829,0,0,0,1.83-1.83V183.35a.923.923,0,0,1,.724-.9l4.249-.941a8.145,8.145,0,0,0,6.384-7.931,4,4,0,0,1,.828-2.468l9.778-12.5a2.2,2.2,0,0,0-.377-3.085Z" transform="translate(0 -122.277)" fill="#eaac9d"/>
    </g>
    <g id="Group_290" data-name="Group 290" transform="translate(17.528 59.004)">
      <g id="Group_289" data-name="Group 289">
        <path id="Path_253" data-name="Path 253" d="M115.319,287.3a7.166,7.166,0,0,0-2.206-1.174,2.2,2.2,0,0,1-.337.614L103,299.241a4.005,4.005,0,0,0-.828,2.469,8.146,8.146,0,0,1-6.384,7.931l-5.506,1.425a.923.923,0,0,0-.724.9v17.628l2.348,0a1.829,1.829,0,0,0,1.83-1.83V315.129a.923.923,0,0,1,.724-.9l4.249-.941a8.145,8.145,0,0,0,6.384-7.931,4.006,4.006,0,0,1,.828-2.469l9.778-12.5A2.2,2.2,0,0,0,115.319,287.3Z" transform="translate(-89.557 -286.124)" fill="#df9380"/>
      </g>
    </g>
  </g>
</svg>
