<svg xmlns="http://www.w3.org/2000/svg" xmlns:xlink="http://www.w3.org/1999/xlink" width="577" height="711" viewBox="0 0 577 711">
  <defs>
    <clipPath id="clip-path">
      <rect id="Rectangle_423" data-name="Rectangle 423" width="577" height="711" transform="translate(129 1100)" fill="#fff" opacity="0.23"/>
    </clipPath>
  </defs>
  <g id="Mask_Group_4" data-name="Mask Group 4" transform="translate(-129 -1100)" clip-path="url(#clip-path)">
    <g id="Group_233" data-name="Group 233" transform="translate(-227.463 909.969)">
      <rect id="Rectangle_421" data-name="Rectangle 421" width="537" height="702" rx="20" transform="translate(368.463 199.031)" fill="#3c73f1"/>
      <rect id="Rectangle_422" data-name="Rectangle 422" width="538" height="702" rx="20" transform="translate(379.463 199.031)" fill="#ff7000"/>
      <ellipse id="Ellipse_602" data-name="Ellipse 602" cx="279" cy="278.5" rx="279" ry="278.5" transform="translate(277.463 489.031)" fill="#fff" opacity="0.13"/>
      <path id="Path_177" data-name="Path 177" d="M71.9,0c.379,0,.749,0,1.128,0,30.474.25,61.819,10.506,88.258,28.876s46.984,44.166,57.851,72.639c4.077,10.684,7.1,22.081,10.019,33.1,5.85,22.076,11.9,44.9,26.684,62.363,10.884,12.854,25.719,21.764,40.067,30.38,12.708,7.631,25.848,15.523,36.364,26.172,21.348,21.623,29.949,52.156,38.266,81.683,8.633,30.66,17.564,62.36,40.842,83.531,35.691,32.455,91.123,28.134,135.427,20.742l5.165-.863c46.548-7.81,94.685-15.886,134.722,6.773,29.947,16.948,49.821,51.454,49.455,85.864s-20.97,68.483-51.271,84.792l-.586-1.091c29.917-16.1,50.259-49.742,50.62-83.714s-19.26-68.043-48.829-84.775c-39.656-22.442-87.57-14.4-133.906-6.63l-5.168.866c-44.579,7.436-100.379,11.765-136.461-21.049-23.54-21.41-32.52-53.284-41.2-84.11-8.272-29.378-16.829-59.753-37.955-81.148-10.407-10.541-23.478-18.392-36.119-25.982-14.434-8.67-29.358-17.633-40.374-30.642-14.966-17.672-21.051-40.636-26.937-62.843-2.914-10.993-5.927-22.36-9.981-32.982C195.549,43.177,135.937,1.759,73.02,1.242,42.388.965,16.151,11.085.943,28.938L0,28.136C15.261,10.224,41.423,0,71.9,0Z" transform="matrix(0.914, -0.407, 0.407, 0.914, 0, 567.226)" fill="#fff" stroke="#fff" stroke-width="5" opacity="0.36"/>
      <path id="Path_183" data-name="Path 183" d="M71.9,0c.379,0,.749,0,1.128,0,30.474.25,61.819,10.506,88.258,28.876s46.984,44.166,57.851,72.639c4.077,10.684,7.1,22.081,10.019,33.1,5.85,22.076,11.9,44.9,26.684,62.363,10.884,12.854,25.719,21.764,40.067,30.38,12.708,7.631,25.848,15.523,36.364,26.172,21.348,21.623,29.949,52.156,38.266,81.683,8.633,30.66,17.564,62.36,40.842,83.531,35.691,32.455,91.123,28.134,135.427,20.742l5.165-.863c46.548-7.81,94.685-15.886,134.722,6.773,29.947,16.948,49.821,51.454,49.455,85.864s-20.97,68.483-51.271,84.792l-.586-1.091c29.917-16.1,50.259-49.742,50.62-83.714s-19.26-68.043-48.829-84.775c-39.656-22.442-87.57-14.4-133.906-6.63l-5.168.866c-44.579,7.436-100.379,11.765-136.461-21.049-23.54-21.41-32.52-53.284-41.2-84.11-8.272-29.378-16.829-59.753-37.955-81.148-10.407-10.541-23.478-18.392-36.119-25.982-14.434-8.67-29.358-17.633-40.374-30.642-14.966-17.672-21.051-40.636-26.937-62.843-2.914-10.993-5.927-22.36-9.981-32.982C195.549,43.177,135.937,1.759,73.02,1.242,42.388.965,16.151,11.085.943,28.938L0,28.136C15.261,10.224,41.423,0,71.9,0Z" transform="matrix(0.914, -0.407, 0.407, 0.914, 338.036, 299.421)" fill="#fff" stroke="#fff" stroke-width="5" opacity="0.36"/>
    </g>
  </g>
</svg>
