<svg xmlns="http://www.w3.org/2000/svg" xmlns:xlink="http://www.w3.org/1999/xlink" width="1170" height="280" viewBox="0 0 1170 280">
  <defs>
    <clipPath id="clip-path">
      <rect id="Rectangle_435" data-name="Rectangle 435" width="1170" height="280" rx="20" transform="translate(375 3603)" fill="#ff7000"/>
    </clipPath>
  </defs>
  <g id="banner-bg" transform="translate(-375 -3603)" clip-path="url(#clip-path)">
    <path id="Path_291" data-name="Path 291" d="M1246.886,496.244c10.82-57.142-23.679-112.336-71.373-140.972-53.942-32.391-100.428-45.514-111.673-108.829-3.637-20.471-9.626-49.364-19.031-68.061-34.576-68.731-114.856-48.305-175.129-46.857C813.1,132.88,776.233,100.768,719.222,54.5c-.359-.292-119.558-151.993-174.306-1.548-10.147,27.882-12.579,50.751-16.923,66.037-17.087,60.139-71.968,58.1-155.083,93.489-105.19,44.8-139.14,167.391-26.317,208.407,43.358,15.767,80.871,18,122.459,38.4,84.98,41.676,76.32,127.247,150.072,164.145,26.413,16.426,66.119,20.185,93.131,15.862,104.009-16.647,144.454-57.766,219.665-35.226,25.557,7.657,57.4,22.278,95.456,28.189C1125.413,647.486,1229.864,586.127,1246.886,496.244Z" transform="translate(664.368 3702.254) rotate(-8)" fill="#fff" opacity="0.15" style="mix-blend-mode: overlay;isolation: isolate"/>
    <circle id="Ellipse_608" data-name="Ellipse 608" cx="59" cy="59" r="59" transform="translate(350 3577)" fill="#fff" opacity="0.15"/>
  </g>
</svg>
