<svg xmlns="http://www.w3.org/2000/svg" xmlns:xlink="http://www.w3.org/1999/xlink" width="818.895" height="831.675" viewBox="0 0 818.895 831.675">
  <defs>
    <linearGradient id="linear-gradient" x1="1.13" y1="1.295" x2="0.236" y2="0.19" gradientUnits="objectBoundingBox">
      <stop offset="0" stop-color="#ff7000"/>
      <stop offset="1" stop-color="#ffd9bb"/>
    </linearGradient>
    <linearGradient id="linear-gradient-2" x1="1.574" y1="-0.084" x2="0.117" y2="0.836" gradientUnits="objectBoundingBox">
      <stop offset="0" stop-color="#b37cff"/>
      <stop offset="1" stop-color="#f895e7"/>
    </linearGradient>
    <linearGradient id="linear-gradient-3" x1="2" y1="-1.946" x2="0.29" y2="1.022" xlink:href="#linear-gradient-2"/>
    <linearGradient id="linear-gradient-4" x1="-3.417" y1="4.07" x2="-2.54" y2="4.07" gradientUnits="objectBoundingBox">
      <stop offset="0" stop-color="#b37cff"/>
      <stop offset="1" stop-color="#ff7000"/>
    </linearGradient>
    <linearGradient id="linear-gradient-5" x1="-80.264" y1="24.845" x2="-78.614" y2="24.845" xlink:href="#linear-gradient-2"/>
    <linearGradient id="linear-gradient-6" x1="-49.43" y1="27.991" x2="-48.707" y2="27.991" xlink:href="#linear-gradient-2"/>
    <linearGradient id="linear-gradient-7" x1="-3.471" y1="3.697" x2="-2.534" y2="3.697" xlink:href="#linear-gradient-4"/>
    <linearGradient id="linear-gradient-8" x1="-135.989" y1="43.334" x2="-134.416" y2="43.334" xlink:href="#linear-gradient-2"/>
    <linearGradient id="linear-gradient-9" x1="-0.266" y1="2.194" x2="1.215" y2="-1.081" gradientUnits="objectBoundingBox">
      <stop offset="0" stop-color="#b37cff"/>
      <stop offset="1" stop-color="#3c73f1"/>
    </linearGradient>
    <linearGradient id="linear-gradient-10" x1="-158.075" y1="82.727" x2="-157.36" y2="82.727" xlink:href="#linear-gradient-2"/>
    <linearGradient id="linear-gradient-11" x1="-7.633" y1="10.889" x2="-6.867" y2="10.889" xlink:href="#linear-gradient-2"/>
    <linearGradient id="linear-gradient-12" x1="-10.799" y1="7.652" x2="-9.588" y2="7.652" xlink:href="#linear-gradient-2"/>
    <linearGradient id="linear-gradient-13" x1="-272.936" y1="70.24" x2="-271.036" y2="70.24" xlink:href="#linear-gradient-2"/>
    <linearGradient id="linear-gradient-14" x1="-1.1" y1="4.038" x2="1.113" y2="-0.856" xlink:href="#linear-gradient-9"/>
    <linearGradient id="linear-gradient-15" x1="30.689" y1="-0.484" x2="27.854" y2="6.012" gradientUnits="objectBoundingBox">
      <stop offset="0" stop-color="#2b3582"/>
      <stop offset="1" stop-color="#150e42"/>
    </linearGradient>
    <linearGradient id="linear-gradient-16" x1="118.129" y1="0.5" x2="119.129" y2="0.5" gradientUnits="objectBoundingBox">
      <stop offset="0" stop-color="#f9b776"/>
      <stop offset="1" stop-color="#f47960"/>
    </linearGradient>
    <linearGradient id="linear-gradient-17" x1="37.817" y1="0.031" x2="34.92" y2="0.887" xlink:href="#linear-gradient-15"/>
    <linearGradient id="linear-gradient-18" x1="76.713" y1="-2.223" x2="69.695" y2="5.384" xlink:href="#linear-gradient-15"/>
    <linearGradient id="linear-gradient-19" x1="136.818" y1="0.5" x2="137.818" y2="0.5" xlink:href="#linear-gradient-16"/>
    <linearGradient id="linear-gradient-20" x1="26.735" y1="-0.035" x2="24.694" y2="0.806" xlink:href="#linear-gradient-15"/>
    <linearGradient id="linear-gradient-21" x1="-15.675" y1="-0.492" x2="-15.33" y2="0.348" xlink:href="#linear-gradient-16"/>
    <linearGradient id="linear-gradient-22" x1="-50.239" y1="0.04" x2="-49.21" y2="1.767" xlink:href="#linear-gradient-16"/>
    <linearGradient id="linear-gradient-23" x1="-120.089" y1="1.716" x2="-121.965" y2="-0.451" xlink:href="#linear-gradient-16"/>
    <linearGradient id="linear-gradient-24" x1="18.271" y1="0.5" x2="19.271" y2="0.5" xlink:href="#linear-gradient-16"/>
    <linearGradient id="linear-gradient-25" x1="0.813" y1="-0.591" x2="0.332" y2="0.936" xlink:href="#linear-gradient-15"/>
    <linearGradient id="linear-gradient-26" x1="58.649" y1="0.5" x2="59.649" y2="0.5" xlink:href="#linear-gradient-16"/>
    <linearGradient id="linear-gradient-27" x1="46.214" y1="0.5" x2="47.214" y2="0.5" xlink:href="#linear-gradient-16"/>
    <linearGradient id="linear-gradient-28" x1="-4.663" y1="12.13" x2="-4.985" y2="11.064" xlink:href="#linear-gradient-16"/>
    <linearGradient id="linear-gradient-29" x1="-3.449" y1="8.185" x2="-3.244" y2="9.364" xlink:href="#linear-gradient-15"/>
    <linearGradient id="linear-gradient-30" x1="-16.422" y1="56.343" x2="-17.365" y2="51.696" xlink:href="#linear-gradient-16"/>
  </defs>
  <g id="faq" transform="translate(-477.842 -465.723)">
    <path id="Path_184" data-name="Path 184" d="M1201.816,1202.741c-16.815,17.7-32.726,29.119-45.3,38.138C1008.755,1346.9,833.91,1316,796.75,1308.449c-54.873-11.145-160.941-32.688-237.627-122.868C443.1,1049.145,461.17,834.194,551.162,692.3,567.623,666.348,654.575,522.295,831.3,499.194c106.954-13.981,231.628,14.217,321.914,89.858C1342.735,747.83,1329.243,1068.59,1201.816,1202.741Z" transform="translate(0 -21.068)" opacity="0.3" fill="url(#linear-gradient)"/>
    <g id="Group_238" data-name="Group 238" transform="translate(989.702 787.239)">
      <path id="Path_185" data-name="Path 185" d="M2242.478,2026.387a5.3,5.3,0,0,1-3.553-2.1c-12.471-16.808-103.159-148.347,17.534-268.583,114.575-114.142,166.511-137.579,173.418-204.642.806-7.832,11.394-9.711,14.878-2.651,26.034,52.766,66.6,175.9-67.635,256.714-148.071,89.15-135.936,186.877-128.775,214.648a5.318,5.318,0,0,1-5.866,6.611Z" transform="translate(-2194.522 -1544.027)" opacity="0.15" fill="url(#linear-gradient-2)"/>
      <path id="Path_186" data-name="Path 186" d="M2395.624,2818.269a7.663,7.663,0,0,1-6.558-6.417c-3.535-22.873-12.215-108.344,50.752-131.01,69.318-24.951,125.28,39.606,176.234-10.923a3.866,3.866,0,0,1,6.55,3.379c-4.538,26.4-24.736,87.531-114.61,99.833-96.2,13.167-107.021,24.2-105.079,37.891a6.453,6.453,0,0,1-7.289,7.246Z" transform="translate(-2329.303 -2333.409)" opacity="0.14" fill="url(#linear-gradient-3)"/>
      <path id="Path_187" data-name="Path 187" d="M2463.219,1791.991a98.689,98.689,0,0,1-4.6,14.279,144.868,144.868,0,0,1-6.238,13.56,177.955,177.955,0,0,1-15.992,25.236,209.2,209.2,0,0,1-42.66,41.806A273.089,273.089,0,0,1,2368.7,1903.1a227.387,227.387,0,0,0-23.759,15.915,250.347,250.347,0,0,0-41.144,39.743c-24.242,29.484-41.446,65.065-47.11,102.949a200.271,200.271,0,0,0-.322,57.3c2.573,19.081,8.011,37.765,15.183,55.779a1.875,1.875,0,0,1-3.435,1.5,224.4,224.4,0,0,1-18.121-56.271,195.188,195.188,0,0,1-1.687-59.469,204.263,204.263,0,0,1,16.054-57.519,231.843,231.843,0,0,1,31.208-50.95,249.98,249.98,0,0,1,42.718-41.76,238.442,238.442,0,0,1,24.84-16.77,274.051,274.051,0,0,0,24.272-15.4,230.221,230.221,0,0,0,42.222-38.508,201.252,201.252,0,0,0,17.079-23.074,151.825,151.825,0,0,0,13.213-25.473l.044-.115a1.712,1.712,0,0,1,3.263,1.01Z" transform="translate(-2231.216 -1716.578)" fill="#fff" opacity="0.47"/>
      <path id="Path_188" data-name="Path 188" d="M2403.341,2842.88a6.088,6.088,0,0,0,.175-2.389l-.073-2.357-.055-4.712q.008-4.711.21-9.419c.279-6.276.814-12.544,1.654-18.781,1.712-12.453,4.534-24.871,9.561-36.567,4.97-11.615,12.5-22.714,23.425-29.967a51.653,51.653,0,0,1,17.945-7.383,65.72,65.72,0,0,1,19.28-.978c25.041,2.9,49.585,7.705,74.194,11.6,12.258,1.828,24.689,3.459,36.723,1.814a54.649,54.649,0,0,0,8.8-2.011,46.316,46.316,0,0,0,8.216-3.67,57.942,57.942,0,0,0,13.947-11.606l.013-.014a1.527,1.527,0,0,1,2.283,2.026,61.2,61.2,0,0,1-14.494,12.573,49.869,49.869,0,0,1-8.784,4.15,58.34,58.34,0,0,1-9.4,2.365c-12.817,1.878-25.522.281-37.921-1.419-12.434-1.77-24.712-4.075-37.033-6.068-12.283-2-24.709-3.932-36.94-5.366a61.405,61.405,0,0,0-18.031.745,47.484,47.484,0,0,0-16.576,6.644c-10.166,6.474-17.543,16.776-22.552,27.927-5.067,11.208-8.078,23.342-9.988,35.584-.94,6.133-1.583,12.319-1.973,18.521q-.289,4.652-.379,9.316l-.031,4.66.03,2.328a5.05,5.05,0,0,0,.365,2.294,1.417,1.417,0,1,1-2.6.183Z" transform="translate(-2341.014 -2373.532)" fill="#fff" opacity="0.47"/>
    </g>
    <g id="Group_245" data-name="Group 245" transform="translate(651.296 465.723)">
      <g id="Group_239" data-name="Group 239" transform="translate(35.848 9.434)">
        <path id="Path_189" data-name="Path 189" d="M1413.85,497.372c-37.727-.3-75.782,5.685-109.451,19.655-78.375,32.519-144.888,118.564-118.859,206.454,8.456,28.551,4.014,60.05,32.457,72.458,15.39,6.713,57.3,10.709,73.234,5.419,42.352-14.061,70.191-52.546,47.157-95.224-7.377-13.667-16.924-26.152-23.293-40.316s-9.273-30.976-2.779-45.085c12.748-27.693,55.094-36.5,82.556-35.666,32.412.981,61.782,17.012,79.224,44.514,21.739,34.276,27.245,75.967,24.064,115.753-3.4,42.573-21.355,75.085-48.257,107.744-23.161,28.118-48.667,55.109-64.061,88.126-14.132,30.311-18.75,63.9-19.388,97.057-.124,6.427-32.087,67-31.95,85.5.02,2.614,36.252,11.275,38.866,11.3l66.5.743a5.3,5.3,0,0,0,5.368-5.229c1.012-90.027,28.7-175.858,98.8-236.321,25.507-22,52.976-39.916,72.809-67.685,28.268-39.579,42.214-78.53,38.189-127.377-3.676-44.612-18.366-89.248-47.445-123.862-31.255-37.2-77-60.435-124.544-70.461A350.8,350.8,0,0,0,1413.85,497.372Z" transform="translate(-1179.801 -497.362)" fill="#ffc99e"/>
        <path id="Path_190" data-name="Path 190" d="M1867.1,2807.743c0,41.4-22.947,78.024-64.345,78.024-8.943,0-39.36.082-47.312-2.79-28.859-10.427-28.963-32.6-28.963-65.053,0-41.4,13.979-82.113,55.378-82.113S1867.1,2766.345,1867.1,2807.743Z" transform="translate(-1563.475 -2068.375)" fill="#ffc99e"/>
      </g>
      <g id="Group_240" data-name="Group 240" transform="translate(0 0)">
        <path id="Path_191" data-name="Path 191" d="M1293.623,465.733c-37.728-.3-75.783,5.685-109.451,19.655-78.375,32.519-144.889,118.564-118.86,206.454,8.456,28.551,28.007,64.491,56.45,76.9,15.389,6.714,33.306,6.269,49.24.978,42.353-14.061,70.191-52.546,47.157-95.224-7.376-13.667-16.923-26.152-23.293-40.316s-9.273-30.976-2.779-45.086c12.747-27.693,55.094-36.5,82.555-35.666,32.413.981,61.782,17.012,79.224,44.514,21.739,34.276,27.245,75.967,24.064,115.754-3.4,42.573-21.355,75.084-48.256,107.744-23.161,28.118-48.667,55.109-64.061,88.126-14.132,30.311-18.751,63.9-19.389,97.057-.124,6.427,2.04,73.545,2.177,92.05a4.789,4.789,0,0,0,4.739,4.755l66.5.743a5.3,5.3,0,0,0,5.369-5.23c1.012-90.027,28.7-175.858,98.8-236.32,25.507-22,52.976-39.916,72.809-67.685,28.268-39.579,42.214-78.53,38.189-127.376-3.676-44.612-18.366-89.249-47.445-123.863-31.255-37.2-77-60.435-124.544-70.461A350.77,350.77,0,0,0,1293.623,465.733Z" transform="translate(-1059.573 -465.723)" fill="#ff7000"/>
        <circle id="Ellipse_603" data-name="Ellipse 603" cx="74.958" cy="74.958" r="74.958" transform="translate(163.002 674.59)" fill="#ff7000"/>
      </g>
      <g id="Group_241" data-name="Group 241" transform="translate(26.682 22.912)">
        <path id="Path_192" data-name="Path 192" d="M1152.927,737.163a.962.962,0,0,1-.938-.754c-5.253-23.719-6.024-60.861,20.132-103.114,25.53-41.241,61.342-68.836,106.441-82.018,48.208-14.092,105.447-11.075,170.126,8.966a.962.962,0,0,1-.57,1.838c-64.313-19.928-121.177-22.941-169.017-8.958-44.63,13.046-80.073,40.36-105.345,81.185-25.817,41.7-25.066,78.315-19.891,101.686a.961.961,0,0,1-.731,1.147A.944.944,0,0,1,1152.927,737.163Z" transform="translate(-1149.057 -542.566)" fill="#fff"/>
      </g>
      <g id="Group_242" data-name="Group 242" transform="translate(34.825 233.053)">
        <path id="Path_193" data-name="Path 193" d="M1187.864,1269.956a.962.962,0,0,1-.778-.394c-.228-.311-5.629-7.774-10.652-20.92a.962.962,0,0,1,1.8-.687c4.932,12.907,10.354,20.4,10.409,20.472a.962.962,0,0,1-.776,1.53Z" transform="translate(-1176.371 -1247.337)" fill="#fff"/>
      </g>
      <g id="Group_243" data-name="Group 243" transform="translate(236.998 693.066)">
        <path id="Path_194" data-name="Path 194" d="M1880.461,2798.031a.953.953,0,0,1-.434-.1,53.985,53.985,0,0,0-24.648-5.871.962.962,0,1,1,0-1.925,55.887,55.887,0,0,1,25.518,6.08.962.962,0,0,1-.436,1.82Z" transform="translate(-1854.417 -2790.131)" fill="#fff"/>
      </g>
      <g id="Group_244" data-name="Group 244" transform="translate(181.477 699.65)">
        <path id="Path_195" data-name="Path 195" d="M1693.652,2909.112a.956.956,0,0,1-.538-.165,56.5,56.5,0,0,1,4.877-96.62.962.962,0,0,1,.911,1.7,54.576,54.576,0,0,0-4.71,93.331.962.962,0,0,1-.539,1.759Z" transform="translate(-1668.212 -2812.212)" fill="#fff"/>
      </g>
    </g>
    <g id="Group_254" data-name="Group 254" transform="translate(491.846 550.759)">
      <g id="Group_249" data-name="Group 249" transform="translate(0 31.75)">
        <g id="Group_246" data-name="Group 246" opacity="0.3">
          <path id="Path_196" data-name="Path 196" d="M675.186,880.85a2.268,2.268,0,0,1-3.19.336c-1.892-1.532-3.878-3-5.9-4.376a2.268,2.268,0,0,1-.63-3.113l.024-.037a2.268,2.268,0,0,1,3.15-.606c2.133,1.444,4.224,2.994,6.215,4.607a2.268,2.268,0,0,1,.476,3A2.139,2.139,0,0,1,675.186,880.85Zm-19.414-10.043c-2.193-1.083-4.453-2.082-6.72-2.97a2.268,2.268,0,1,1,1.656-4.223c2.384.935,4.764,1.986,7.071,3.125a2.269,2.269,0,0,1,1.03,3.039,2.322,2.322,0,0,1-.133.234A2.268,2.268,0,0,1,655.773,870.808Zm-18.1-6.541c-2.373-.566-4.8-1.035-7.212-1.395a2.269,2.269,0,0,1,.669-4.487c2.541.379,5.1.874,7.594,1.469a2.268,2.268,0,1,1-1.052,4.413Zm-19.112-2.327c-2.442-.022-4.913.064-7.345.251a2.269,2.269,0,0,1-.349-4.524c2.561-.2,5.162-.286,7.732-.265a2.269,2.269,0,0,1-.038,4.537ZM599.4,863.928c-2.38.52-4.772,1.15-7.107,1.872a2.268,2.268,0,1,1-1.34-4.334c2.458-.76,4.974-1.422,7.478-1.97a2.268,2.268,0,0,1,.969,4.432Zm-18.237,6.177c-2.209,1.035-4.4,2.178-6.515,3.4a2.269,2.269,0,0,1-2.267-3.93c2.225-1.283,4.532-2.486,6.857-3.576a2.268,2.268,0,1,1,1.925,4.108ZM530.04,937.053a2.269,2.269,0,0,1-1.9-2.582c.383-2.538.883-5.093,1.484-7.595a2.268,2.268,0,1,1,4.411,1.06c-.571,2.375-1.045,4.8-1.408,7.211a2.267,2.267,0,0,1-2.582,1.9Zm34.721-56.888c-1.923,1.5-3.8,3.1-5.59,4.761a2.268,2.268,0,1,1-3.087-3.325c1.881-1.747,3.862-3.434,5.887-5.013a2.268,2.268,0,1,1,2.79,3.577Zm-30.08,37.669a2.269,2.269,0,0,1-1.278-2.942c.942-2.387,2-4.765,3.141-7.069a2.268,2.268,0,1,1,4.065,2.016c-1.085,2.189-2.09,4.449-2.984,6.718a2.271,2.271,0,0,1-2.943,1.277Zm16.338-24.2c-1.537,1.891-3.014,3.873-4.387,5.892a2.268,2.268,0,0,1-3.778-2.511c.009-.013.018-.027.027-.04,1.445-2.127,3-4.214,4.617-6.2a2.269,2.269,0,0,1,3.664,2.665C551.119,893.506,551.071,893.572,551.02,893.636Z" transform="translate(-527.125 -857.4)" fill="url(#linear-gradient-4)"/>
          <path id="Path_197" data-name="Path 197" d="M529.024,1157.708a2.257,2.257,0,0,0,.364-1.305c-.037-1.169-.049-2.358-.039-3.535a2.268,2.268,0,1,0-4.536-.042c-.012,1.238,0,2.488.041,3.718a2.268,2.268,0,0,0,4.17,1.163Z" transform="translate(-524.809 -1063.162)" fill="url(#linear-gradient-5)"/>
        </g>
        <g id="Group_247" data-name="Group 247" transform="translate(26.393 81.567)" opacity="0.3">
          <path id="Path_198" data-name="Path 198" d="M620.138,1370.97a2.269,2.269,0,0,0-.382-2.917c-.867-.784-1.733-1.6-2.572-2.424a2.268,2.268,0,1,0-3.179,3.237c.884.868,1.8,1.727,2.709,2.553a2.267,2.267,0,0,0,3.425-.449Z" transform="translate(-613.325 -1295.202)" fill="url(#linear-gradient-6)"/>
          <path id="Path_199" data-name="Path 199" d="M779.438,1230.158a2.268,2.268,0,1,1-3.678-2.656c1.4-1.934,2.731-3.957,3.985-6.036a2.269,2.269,0,0,1,3.886,2.343q-.815,1.351-1.668,2.664C781.151,1227.722,780.3,1228.962,779.438,1230.158ZM786.3,1214a2.268,2.268,0,0,1-1.185-2.98c.952-2.209,1.821-4.481,2.582-6.756a2.268,2.268,0,1,1,4.3,1.439c-.8,2.394-1.716,4.787-2.718,7.111A2.266,2.266,0,0,1,786.3,1214Zm-14.767,25.662c-1.743,1.825-3.588,3.6-5.484,5.277a2.269,2.269,0,1,1-3.005-3.4c1.8-1.592,3.553-3.278,5.208-5.011a2.268,2.268,0,0,1,3.281,3.133Zm20.929-44.115a2.268,2.268,0,0,1-1.811-2.648c.443-2.36.79-4.768,1.032-7.155a2.268,2.268,0,0,1,4.513.457c-.255,2.514-.621,5.05-1.087,7.535a2.265,2.265,0,0,1-2.648,1.811Zm-36.209,56.917c-2.1,1.4-4.29,2.722-6.509,3.941a2.268,2.268,0,1,1-2.184-3.976c2.107-1.158,4.187-2.417,6.182-3.743a2.268,2.268,0,1,1,2.511,3.778Zm-17.717,9.141c-2.361.906-4.787,1.722-7.212,2.427a2.268,2.268,0,1,1-1.266-4.356c2.3-.67,4.609-1.446,6.853-2.306a2.268,2.268,0,1,1,1.624,4.235Zm-19.289,5.063c-2.5.37-5.05.638-7.568.8a2.268,2.268,0,1,1-.287-4.528c2.393-.151,4.812-.407,7.192-.759a2.268,2.268,0,0,1,.664,4.488Zm-19.934.734c-2.523-.186-5.068-.482-7.562-.88a2.268,2.268,0,1,1,.715-4.479c2.369.378,4.785.659,7.182.835a2.268,2.268,0,1,1-.334,4.524Zm-19.618-3.666c-2.414-.736-4.829-1.585-7.178-2.523A2.269,2.269,0,0,1,674.2,1257c2.231.892,4.525,1.7,6.818,2.4a2.268,2.268,0,1,1-1.323,4.339Zm-18.315-7.876c-1.618-.916-3.229-1.894-4.785-2.906q-.846-.55-1.675-1.115a2.243,2.243,0,0,1-.6-3.151,2.268,2.268,0,0,1,3.152-.6q.788.536,1.592,1.06c1.48.961,3.01,1.891,4.549,2.762a2.268,2.268,0,0,1,.856,3.091c-.024.041-.047.081-.073.12A2.268,2.268,0,0,1,661.38,1255.859Z" transform="translate(-641.813 -1167.977)" fill="url(#linear-gradient-7)"/>
          <path id="Path_200" data-name="Path 200" d="M1120.907,1138.084a2.261,2.261,0,0,0,.364-1.317c-.045-1.227-.116-2.477-.213-3.714a2.268,2.268,0,1,0-4.523.351c.091,1.175.159,2.362.2,3.527a2.268,2.268,0,0,0,4.17,1.152Z" transform="translate(-966.489 -1130.961)" fill="url(#linear-gradient-8)"/>
        </g>
        <g id="Group_248" data-name="Group 248" transform="translate(22.872 23.158)">
          <path id="Path_201" data-name="Path 201" d="M731,974.091a1.06,1.06,0,0,0-.986-.736l-12.9-.284a56.208,56.208,0,0,0-11.766-13.9l1.841-12.763a1.06,1.06,0,0,0-.564-1.094l-13.762-7.083a1.06,1.06,0,0,0-1.218.177l-9.317,8.916a56.207,56.207,0,0,0-18.15-1.5l-7.728-10.334a1.06,1.06,0,0,0-1.172-.374l-14.74,4.723a1.06,1.06,0,0,0-.736.986l-.283,12.9a56.2,56.2,0,0,0-13.9,11.766l-12.763-1.841a1.059,1.059,0,0,0-1.094.564l-7.083,13.762a1.061,1.061,0,0,0,.177,1.218l8.916,9.317a56.2,56.2,0,0,0-1.5,18.15l-10.334,7.728a1.06,1.06,0,0,0-.375,1.172l4.723,14.74a1.06,1.06,0,0,0,.986.736l12.9.284a56.2,56.2,0,0,0,11.766,13.9l-1.841,12.763a1.06,1.06,0,0,0,.564,1.094l13.762,7.083a1.06,1.06,0,0,0,1.218-.177l9.317-8.916a56.209,56.209,0,0,0,18.15,1.5l7.728,10.333a1.06,1.06,0,0,0,1.173.375l14.74-4.723a1.061,1.061,0,0,0,.736-.986l.284-12.9a56.214,56.214,0,0,0,13.9-11.766l12.763,1.841a1.061,1.061,0,0,0,1.094-.564l7.083-13.762a1.06,1.06,0,0,0-.177-1.218l-8.916-9.317a56.213,56.213,0,0,0,1.5-18.149L735.351,990a1.06,1.06,0,0,0,.375-1.172Z" transform="translate(-601.516 -935.068)" fill="url(#linear-gradient-9)"/>
          <path id="Path_202" data-name="Path 202" d="M801.7,1133.894a15.549,15.549,0,1,1,1.382-1.819A15.576,15.576,0,0,1,801.7,1133.894Zm-23.575-9.54a11.929,11.929,0,1,0,2.958-8.638,12.12,12.12,0,0,0-1.07,1.409A11.842,11.842,0,0,0,778.128,1124.354Z" transform="translate(-722.904 -1056.475)" fill="#fff" opacity="0.56"/>
          <path id="Path_203" data-name="Path 203" d="M767.533,1091.331a38.879,38.879,0,0,0,1.973-3.4h0q.286-.554.553-1.118a38.542,38.542,0,0,0,2.179-5.726l.024-.08c.021-.076.043-.151.064-.228.042-.147.082-.3.123-.443a.907.907,0,1,0-1.752-.472,36.483,36.483,0,0,1-31.908,26.841,36.218,36.218,0,0,1-19.972-3.88,36.993,36.993,0,0,1-3.244-1.882,36.442,36.442,0,0,1,36.6-62.92,36.449,36.449,0,0,1,14.274,13.154.907.907,0,1,0,1.542-.957,38.259,38.259,0,1,0-53.4,52.243,39.133,39.133,0,0,0,3.405,1.975,38.263,38.263,0,0,0,49.548-13.108Z" transform="translate(-668.682 -1003.221)" fill="#fff" opacity="0.56"/>
        </g>
      </g>
      <g id="Group_253" data-name="Group 253" transform="translate(138.611 0)">
        <g id="Group_250" data-name="Group 250" opacity="0.3">
          <path id="Path_204" data-name="Path 204" d="M1319.8,815.769a1.4,1.4,0,0,0-.112-1.675c-.774-.9-1.587-1.795-2.414-2.65a1.4,1.4,0,1,0-2.014,1.949c.789.815,1.563,1.665,2.3,2.526a1.4,1.4,0,0,0,1.975.151A1.421,1.421,0,0,0,1319.8,815.769Z" transform="translate(-1217.908 -793.097)" fill="url(#linear-gradient-10)"/>
          <path id="Path_205" data-name="Path 205" d="M1083.755,766.2a1.4,1.4,0,0,1-1.97.212,58.321,58.321,0,0,0-4.76-3.449q-.518-.336-1.047-.664a1.4,1.4,0,0,1-.452-1.929,1.451,1.451,0,0,1,1.93-.451q.553.344,1.1.7a60.915,60.915,0,0,1,4.991,3.617,1.4,1.4,0,0,1,.3,1.853C1083.813,766.127,1083.785,766.166,1083.755,766.2Zm-14.041-7.277a58.11,58.11,0,0,0-6.627-2.585,1.4,1.4,0,0,1,.856-2.668,60.771,60.771,0,0,1,6.947,2.711,1.4,1.4,0,0,1,.684,1.861,1.457,1.457,0,0,1-.1.176A1.4,1.4,0,0,1,1069.714,758.927Zm-13.525-4.332a57.512,57.512,0,0,0-7.061-.878,1.4,1.4,0,0,1,.173-2.8,60.5,60.5,0,0,1,7.405.92,1.4,1.4,0,0,1-.517,2.755Zm-14.176-.877a57.8,57.8,0,0,0-7.059.877,1.4,1.4,0,0,1-.517-2.755,60.774,60.774,0,0,1,7.4-.919,1.4,1.4,0,1,1,.173,2.8Zm-13.961,2.611a58.388,58.388,0,0,0-6.635,2.564,1.4,1.4,0,1,1-1.168-2.547,61.317,61.317,0,0,1,6.954-2.688,1.4,1.4,0,0,1,.849,2.671Zm-12.9,5.921a57.4,57.4,0,0,0-5.8,4.1,1.4,1.4,0,0,1-1.756-2.184,60.291,60.291,0,0,1,6.087-4.3,1.4,1.4,0,0,1,1.472,2.384Zm-11.059,8.893a57.562,57.562,0,0,0-4.623,5.406,1.4,1.4,0,0,1-2.238-1.688,60.787,60.787,0,0,1,4.848-5.668,1.4,1.4,0,0,1,2.182,1.737A1.382,1.382,0,0,1,1004.09,771.144ZM990.537,789.6a1.4,1.4,0,0,1-.744-1.836,60.9,60.9,0,0,1,2.842-5.823c.158-.288.32-.572.483-.856a1.4,1.4,0,0,1,2.426,1.4c-.154.265-.306.533-.456.808a58.132,58.132,0,0,0-2.715,5.559,1.362,1.362,0,0,1-.116.219A1.4,1.4,0,0,1,990.537,789.6Z" transform="translate(-989.682 -750.918)" fill="url(#linear-gradient-11)"/>
        </g>
        <g id="Group_251" data-name="Group 251" transform="translate(47.89 54.469)" opacity="0.3">
          <path id="Path_206" data-name="Path 206" d="M1208.53,998.454a61.078,61.078,0,0,1-4.437,5.84,1.4,1.4,0,0,1-2.124-1.828,57.976,57.976,0,0,0,4.232-5.57,1.4,1.4,0,0,1,2.34,1.542Zm1.821-5.72a1.4,1.4,0,0,1-.616-1.883,58.515,58.515,0,0,0,2.785-6.423,1.4,1.4,0,0,1,2.634.959,61.373,61.373,0,0,1-2.92,6.731,1.442,1.442,0,0,1-.076.132A1.4,1.4,0,0,1,1210.351,992.735Zm-11.375,16.821a60.743,60.743,0,0,1-5.718,4.6,1.4,1.4,0,0,1-1.621-2.287,58.111,58.111,0,0,0,5.456-4.383,1.4,1.4,0,0,1,2.117,1.8A1.386,1.386,0,0,1,1198.976,1009.556Zm16.582-30.157a1.4,1.4,0,0,1-1.051-1.68,57.586,57.586,0,0,0,1.152-6.9,1.4,1.4,0,1,1,2.787.292,60.059,60.059,0,0,1-1.208,7.24,1.4,1.4,0,0,1-1.68,1.051Zm-28.531,38.617a60.947,60.947,0,0,1-6.655,3.085,1.4,1.4,0,1,1-1.023-2.61,57.686,57.686,0,0,0,6.347-2.942,1.4,1.4,0,0,1,1.331,2.467Zm-13.633,5.347a61.227,61.227,0,0,1-7.2,1.4,1.4,1.4,0,1,1-.369-2.777,58.632,58.632,0,0,0,6.87-1.341,1.4,1.4,0,0,1,.7,2.713Zm-14.522,1.93a60.5,60.5,0,0,1-7.331-.365,1.4,1.4,0,0,1,.309-2.785,57.3,57.3,0,0,0,6.99.347,1.4,1.4,0,0,1,1.417,1.386,1.384,1.384,0,0,1-.225.778A1.4,1.4,0,0,1,1158.872,1025.294Z" transform="translate(-1150.295 -958.838)" fill="url(#linear-gradient-12)"/>
          <path id="Path_207" data-name="Path 207" d="M1372.711,939.257a1.4,1.4,0,0,0,.225-.789c-.022-1.2-.08-2.4-.172-3.578a1.4,1.4,0,1,0-2.794.217c.087,1.121.142,2.269.164,3.413a1.4,1.4,0,0,0,2.576.736Z" transform="translate(-1304.467 -933.598)" fill="url(#linear-gradient-13)"/>
        </g>
        <g id="Group_252" data-name="Group 252" transform="translate(10.516 15.268)">
          <path id="Path_208" data-name="Path 208" d="M1111.6,828.235a.709.709,0,0,0-.66-.493l-8.633-.19a37.615,37.615,0,0,0-7.873-9.3l1.232-8.541a.71.71,0,0,0-.378-.732l-9.209-4.739a.709.709,0,0,0-.815.118l-6.234,5.966a37.6,37.6,0,0,0-12.145-1l-5.171-6.914a.709.709,0,0,0-.785-.251l-9.863,3.16a.709.709,0,0,0-.493.66l-.19,8.632a37.611,37.611,0,0,0-9.3,7.873l-8.541-1.232a.709.709,0,0,0-.732.378l-4.74,9.209a.709.709,0,0,0,.118.815l5.966,6.234a37.611,37.611,0,0,0-1,12.145l-6.915,5.171a.709.709,0,0,0-.25.784l3.16,9.863a.709.709,0,0,0,.66.493l8.633.19a37.6,37.6,0,0,0,7.873,9.3l-1.232,8.541a.709.709,0,0,0,.377.732l9.209,4.74a.71.71,0,0,0,.815-.118l6.234-5.966a37.621,37.621,0,0,0,12.145,1l5.172,6.915a.709.709,0,0,0,.784.251l9.863-3.16a.71.71,0,0,0,.493-.66l.19-8.632a37.607,37.607,0,0,0,9.3-7.874l8.541,1.232a.71.71,0,0,0,.732-.378l4.74-9.209a.709.709,0,0,0-.118-.815l-5.966-6.234a37.612,37.612,0,0,0,1-12.145l6.915-5.171a.71.71,0,0,0,.251-.784Z" transform="translate(-1024.95 -802.123)" fill="url(#linear-gradient-14)"/>
          <path id="Path_209" data-name="Path 209" d="M1158.623,934.851a10.561,10.561,0,1,1,.95-1.251A10.8,10.8,0,0,1,1158.623,934.851Zm-13.106-1.16a7.8,7.8,0,0,0,11-.692h0a7.8,7.8,0,0,0-11.7-10.312,7.8,7.8,0,0,0,.691,11Z" transform="translate(-1105.753 -882.923)" fill="#fff" opacity="0.56"/>
          <path id="Path_210" data-name="Path 210" d="M1134.85,905.188a26.832,26.832,0,0,0,1.347-2.322,26.535,26.535,0,0,0,1.965-5.006l.063-.233a1.4,1.4,0,1,0-2.705-.728,23.649,23.649,0,0,1-1.815,4.684h0c-.042.082-.086.164-.128.245a23.362,23.362,0,0,1-7.733,8.583,23.725,23.725,0,0,1-5.713,2.777l-.05.017-.153.049a23.438,23.438,0,0,1-17.994-1.49,23.792,23.792,0,0,1-2.1-1.218,23.592,23.592,0,1,1,32.931-32.217,1.4,1.4,0,1,0,2.38-1.479,26.395,26.395,0,1,0-36.843,36.043,26.834,26.834,0,0,0,2.349,1.363A26.431,26.431,0,0,0,1134.85,905.188Z" transform="translate(-1068.025 -845.819)" fill="#fff" opacity="0.56"/>
        </g>
      </g>
    </g>
    <g id="Group_255" data-name="Group 255" transform="translate(975.362 617.733)">
      <path id="Path_211" data-name="Path 211" d="M2187.172,1320.214l-40.743,41.677,48.873-13.055Z" transform="translate(-2146.429 -1217.442)" fill="#3c73f1"/>
      <path id="Path_212" data-name="Path 212" d="M2525.505,1095.56,2294,1106.8a10.419,10.419,0,0,1-10.924-10.407v-95.243a19.162,19.162,0,0,1,18.57-19.153l208.648-6.456a28.134,28.134,0,0,1,28.134,28.133V1082A13.577,13.577,0,0,1,2525.505,1095.56Z" transform="translate(-2242.33 -975.537)" fill="#3c73f1"/>
      <path id="Path_213" data-name="Path 213" d="M2309.29,1109.039A14.316,14.316,0,0,1,2295,1094.725v-85.842a18.733,18.733,0,0,1,18.466-18.6l202.018-6.1c15.312,0,27.757,12.15,27.757,27.084v74.008a13.46,13.46,0,0,1-12.987,13.315l-220.263,10.432Q2309.639,1109.039,2309.29,1109.039ZM2515.5,985.188l-202,6.1A17.734,17.734,0,0,0,2296,1008.883v85.842a13.31,13.31,0,0,0,13.94,13.3l220.262-10.432.024.5-.024-.5a12.457,12.457,0,0,0,12.031-12.312v-74.008C2542.234,996.887,2530.24,985.188,2515.5,985.188Z" transform="translate(-2250.699 -981.606)" fill="#fff" opacity="0.85"/>
      <path id="Path_214" data-name="Path 214" d="M2589.006,1045.781l-185.118,6.928c-1.817.068-3.249,1.273-3.188,2.685l.069,1.627c.06,1.4,1.559,2.47,3.357,2.4l185.125-6.76c1.819-.066,3.253-1.272,3.192-2.685l-.076-1.8C2592.307,1046.788,2590.806,1045.714,2589.006,1045.781Z" transform="translate(-2324.883 -1024.834)" fill="#fff" opacity="0.94"/>
      <path id="Path_215" data-name="Path 215" d="M2533.452,1202.958l-185.119,6.893c-1.818.068-3.247,1.313-3.185,2.776l.072,1.685c.062,1.447,1.563,2.561,3.361,2.5l185.127-6.719c1.819-.066,3.251-1.313,3.188-2.776l-.079-1.86C2536.755,1204.006,2535.253,1202.891,2533.452,1202.958Z" transform="translate(-2285.895 -1135.146)" fill="#fff" opacity="0.94"/>
      <path id="Path_216" data-name="Path 216" d="M2555.082,1268.707l-206.367,7.792c-2.027.077-3.625,1.341-3.562,2.818l.073,1.7c.063,1.461,1.73,2.579,3.735,2.505l206.375-7.616c2.028-.075,3.629-1.34,3.566-2.818l-.081-1.878C2558.76,1269.751,2557.089,1268.632,2555.082,1268.707Z" transform="translate(-2285.898 -1181.291)" fill="#fff" opacity="0.94"/>
      <path id="Path_217" data-name="Path 217" d="M2450.461,1138.454l-100.9,2.941c-.991.029-1.732,1.389-1.651,3.03l.094,1.892c.08,1.624.936,2.912,1.916,2.885l100.907-2.745c.991-.027,1.734-1.387,1.652-3.03l-.1-2.087C2452.3,1139.714,2451.442,1138.426,2450.461,1138.454Z" transform="translate(-2287.832 -1089.877)" fill="#fff" opacity="0.94"/>
      <path id="Path_218" data-name="Path 218" d="M2836.568,1126.758l-95.367,2.734c-.937.027-1.633,1.385-1.551,3.026l.094,1.892c.081,1.624.893,2.913,1.82,2.889l95.377-2.538c.938-.025,1.635-1.384,1.553-3.026l-.1-2.087C2838.31,1128.022,2837.5,1126.731,2836.568,1126.758Z" transform="translate(-2562.765 -1081.668)" fill="#fff" opacity="0.94"/>
    </g>
    <g id="Group_260" data-name="Group 260" transform="translate(547.403 745.333)">
      <path id="Path_219" data-name="Path 219" d="M1097.381,3139.893s-1.908,10.8-2.844,21.5a7.369,7.369,0,0,0,7.048,7.983c14.241.593,44.7,1.746,55.633,1.259a2.4,2.4,0,0,0,2.11-3.284h0a5.368,5.368,0,0,0-2.745-2.892l-50.318-23.126Z" transform="translate(-980.199 -2622.149)" fill="url(#linear-gradient-15)"/>
      <path id="Path_220" data-name="Path 220" d="M1098.9,3113.908l1.533,12.922s8.814,4.1,14.834-.517l-3.65-14.4Z" transform="translate(-983.28 -2602.511)" fill="url(#linear-gradient-16)"/>
      <path id="Path_221" data-name="Path 221" d="M1008.7,2303.838c-.662,3.374-3.555,168.393,14.085,242.343a2.51,2.51,0,0,1-1.472,2.92,43.713,43.713,0,0,1-14.365,2.92,4.324,4.324,0,0,1-4.289-3.1c-5.042-17.157-29.2-103.122-32.355-185.241-3.522-91.76,0-3.125,0-3.125l2.066-56.72Z" transform="translate(-891.928 -2035.375)" fill="url(#linear-gradient-17)"/>
      <path id="Path_222" data-name="Path 222" d="M895.729,3158.794s-3.037,5.454-5.978,19.946a4.5,4.5,0,0,0,3.956,5.383c4.7.462,11.941,1.057,17.74,1.018a4.482,4.482,0,0,0,4.437-5c-.642-5.29-2.643-13.969-8.825-20.732Z" transform="translate(-836.428 -2635.415)" fill="url(#linear-gradient-18)"/>
      <path id="Path_223" data-name="Path 223" d="M901.069,3101.266l3.583,19.541s3.542,2.635,10.549.725l-1.71-21.025Z" transform="translate(-844.436 -2594.507)" fill="url(#linear-gradient-19)"/>
      <path id="Path_224" data-name="Path 224" d="M855.541,2299.34c-14.427,87.065,3.129,215.188,9.05,240.265a3.911,3.911,0,0,0,3.158,2.969,26.262,26.262,0,0,0,11.284-.45,3.585,3.585,0,0,0,2.577-3.3c.794-20.274-.635-144.736,12.807-193.924a11.171,11.171,0,0,1,4.31-6.164l26.09-18.548,2-29.981Z" transform="translate(-808.586 -2025.813)" fill="url(#linear-gradient-20)"/>
      <g id="Group_256" data-name="Group 256" transform="translate(41.568 41.598)">
        <path id="Path_225" data-name="Path 225" d="M947.859,1750.92c-43.234-.714-90.937,11.351-90.937,11.351-12.887,75.2-2.254,161.928-2.254,161.928,33.47,8.777,71.227-5.366,71.227-5.366,5.563-31.43,31.518-119.884,31.518-119.884,21.124-2.622,38.525-8.716,52.856-16.774-10.931-12.67-16.084-28.793-18.322-38.323C976.661,1748.6,961.193,1751.14,947.859,1750.92Z" transform="translate(-850.545 -1683.962)" fill="#3c73f1"/>
        <path id="Path_226" data-name="Path 226" d="M1408.394,1546.27a8.272,8.272,0,0,0-9.622-2.7c-6.362,26.875-39.721,48.665-73.994,59.316,2.238,9.53,7.391,25.653,18.322,38.323C1399.978,1609.226,1408.394,1546.27,1408.394,1546.27Z" transform="translate(-1183.377 -1542.993)" fill="url(#linear-gradient-21)"/>
      </g>
      <g id="Group_257" data-name="Group 257" transform="translate(256.963 0)">
        <path id="Path_227" data-name="Path 227" d="M1581.531,1449.66c.444,1.413-4.7,3.564-7.732-2.214-.106-2.769-1.79-14.633-.135-16.889,8.813-12.015,25.9-27.077,25.9-27.077a4.066,4.066,0,0,1,.509,5.649l-8.289,8.635c1.734,3.133,3.849,5.778,4.84,9.567a11.615,11.615,0,0,1-1.158,8.549c-1.455,2.621-3.44,6.029-5.317,8.7A11.468,11.468,0,0,1,1581.531,1449.66Z" transform="translate(-1572.94 -1403.481)" fill="url(#linear-gradient-22)"/>
        <path id="Path_228" data-name="Path 228" d="M1600.616,1470.174l-7.554,6.4-2.371,6.375,6.735,7.471s2.264-12.65,3.947-15.387S1602.183,1470.975,1600.616,1470.174Z" transform="translate(-1585.398 -1450.288)" fill="url(#linear-gradient-23)"/>
      </g>
      <path id="Path_229" data-name="Path 229" d="M777.828,1847.489l-16.582-41.863s-40.383,27.438-47.024,62.227c7.63.562,21.515,2.547,35.106,9.409C752.314,1860.835,777.828,1847.489,777.828,1847.489Z" transform="translate(-713.301 -1685.719)" fill="#3c73f1"/>
      <path id="Path_230" data-name="Path 230" d="M810.951,2033.351s-45.339,25.623-60.637,3.744a17.2,17.2,0,0,1-3.153-13.363c-13.591-6.862-27.475-8.847-35.105-9.409a48.014,48.014,0,0,0,5.219,32.916c26.8,49.019,99.677-2.709,99.677-2.709Z" transform="translate(-711.134 -1832.189)" fill="url(#linear-gradient-24)"/>
      <g id="Group_258" data-name="Group 258" transform="translate(94.27 131.591)">
        <path id="Path_231" data-name="Path 231" d="M1027.4,1966.555l24.745-86.413a2.519,2.519,0,0,1,2.131-1.815c4.483-.523,17.474-1.991,32.473-3.26,18.067-1.528,39.048-2.766,51.586-1.713a2.528,2.528,0,0,1,2.067,3.638c-7.13,14.424-36.457,73.1-51.143,92.32a2.538,2.538,0,0,1-2.04,1l-57.412-.534A2.529,2.529,0,0,1,1027.4,1966.555Z" transform="translate(-1027.297 -1864.568)" fill="url(#linear-gradient-25)"/>
        <path id="Path_232" data-name="Path 232" d="M1230.161,1847.818l17.94-2.99a1.287,1.287,0,0,1,1.434,1.674l-1.776,5.382a1.287,1.287,0,0,1-1.052.873l-17.264,2.306a1.288,1.288,0,0,1-1.424-1.57l1.1-4.7A1.288,1.288,0,0,1,1230.161,1847.818Z" transform="translate(-1168.146 -1844.81)" fill="#ff7000"/>
        <path id="Path_233" data-name="Path 233" d="M1190.155,1875.659l1.478-7.7a1.78,1.78,0,0,1,1.568-1.435l36.235-3.677a1.78,1.78,0,0,1,1.91,2.186l-2.3,9.593a1.78,1.78,0,0,1-1.641,1.361l-35.409,1.782A1.779,1.779,0,0,1,1190.155,1875.659Z" transform="translate(-1141.573 -1857.464)" fill="#ff7000"/>
        <path id="Path_234" data-name="Path 234" d="M1042.062,2047.488s-3.447-14.174-2.057-19.2,4.084-11.494,13.064-10.057a131.382,131.382,0,0,1,19.572,5.219s-.535,6.55-7.36,4.437l4.232,3.274s-.6,5.244-6.37,2.443l3.936,4.343s-2.476,4.307-6.717,1.544S1054.089,2049.194,1042.062,2047.488Z" transform="translate(-1035.984 -1966.378)" fill="url(#linear-gradient-26)"/>
      </g>
      <path id="Path_235" data-name="Path 235" d="M997.477,1649.84l-13.756,39.782a1.433,1.433,0,0,0,.653,1.726c3.75,2.073,17.26,8.066,33.54-2.256a6.75,6.75,0,0,0,3.108-4.821l4.455-34.431Z" transform="translate(-902.388 -1576.384)" fill="url(#linear-gradient-27)"/>
      <g id="Group_259" data-name="Group 259" transform="translate(68.981 15.942)">
        <path id="Path_236" data-name="Path 236" d="M1047.435,1526.288s15.106,28.435,13.17,39.921-20.658,10.662-37.006,1.333l-11.424-30.7Z" transform="translate(-991.395 -1505.613)" fill="url(#linear-gradient-28)"/>
        <path id="Path_237" data-name="Path 237" d="M975.409,1503.8a1.172,1.172,0,0,0,.511-1.715c-1.21-1.849-3.479-5.621-4.2-8.923,0,0-2.715-1.74,6.912-4.043s23.984-5.881,27-14.076c2.942-7.989-4.788-28.082-17.121-12.073a1.171,1.171,0,0,1-1.857.013c-2.022-2.631-7.337-8.093-14.717-4.782-6.906,3.1-7.684,8.159-7.589,10.71a1.165,1.165,0,0,1-1.381,1.193c-3.492-.666-11.87-1.238-15.781,7.357-3.221,7.08-1.128,11.088.779,13.048a1.168,1.168,0,0,1-.5,1.94c-2.294.7-5.258,2.648-4.961,8.024.41,7.433,8.72,6.778,11.086,6.439a1.174,1.174,0,0,1,1.041.368c2.028,2.245,11.169,11.777,21.061,12.926a1.182,1.182,0,0,0,1.24-1.562L972.65,1506.2a1.177,1.177,0,0,1,.636-1.459Z" transform="translate(-942.483 -1456.948)" fill="url(#linear-gradient-29)"/>
        <path id="Path_238" data-name="Path 238" d="M1031.419,1611.4s-10.755-7.379-11.541-1.165,9.685,9,14.872,6.684Z" transform="translate(-996.771 -1562.782)" fill="url(#linear-gradient-30)"/>
      </g>
    </g>
  </g>
</svg>
