<svg xmlns="http://www.w3.org/2000/svg" xmlns:xlink="http://www.w3.org/1999/xlink" width="547" height="531" viewBox="0 0 547 531">
  <defs>
    <clipPath id="clip-path">
      <rect id="Rectangle_459" data-name="Rectangle 459" width="547" height="531" transform="translate(0 9320)" fill="#fff" stroke="#707070" stroke-width="1"/>
    </clipPath>
  </defs>
  <g id="footer-bg-1" transform="translate(0 -9320)" clip-path="url(#clip-path)">
    <path id="footer-bg1" d="M489.309,214.914c20.8,5.634,37.278,24.687,39.853,46.082,2.906,24.158-10.318,49.415-2.11,72.321,10.8,30.141,49.6,36.607,76.407,54.119,26.591,17.372,42.821,49.5,41.029,81.208s-21.539,61.8-49.918,76.066c-45.622,22.931-102.695,4.664-150.266,23.216-31.6,12.322-55.323,39.525-86.181,53.608C313.933,641.7,257.3,630,224.721,593.982s-38.561-93.537-14.08-135.489c16.422-28.142,44.826-49.611,53.753-80.946,9.309-32.677-4.975-66.722-13.028-99.73s-6.434-74.692,22.586-92.363c26.987-16.435,61.551-2.712,89.946,11.15,17.1,8.348,49.255,32.734,68.437,32.079C453.017,227.978,464.41,208,489.309,214.914Z" transform="translate(-268.622 9349.834)" fill="#fff" opacity="0.2"/>
  </g>
</svg>
