<svg xmlns="http://www.w3.org/2000/svg" xmlns:xlink="http://www.w3.org/1999/xlink" width="1620" height="1266" viewBox="0 0 1620 1266">
  <defs>
    <clipPath id="clip-path">
      <rect id="Rectangle_446" data-name="Rectangle 446" width="1620" height="1266" rx="70" transform="translate(150 4509.596)" fill="#f5f5f5"/>
    </clipPath>
  </defs>
  <g id="Mask_Group_8" data-name="Mask Group 8" transform="translate(-150 -4509.596)" clip-path="url(#clip-path)">
    <path id="Path_334" data-name="Path 334" d="M618.073,231.118c29.921,8.1,53.622,35.511,57.326,66.287,4.18,34.749-14.841,71.08-3.035,104.03,15.533,43.356,71.347,52.657,109.907,77.847,38.249,24.989,61.6,71.2,59.017,116.814s-30.982,88.9-71.8,109.416c-65.624,32.985-147.72,6.708-216.149,33.395-45.455,17.725-79.579,56.855-123.967,77.111-63.563,29.006-145.02,12.182-191.89-39.633s-55.468-134.547-20.254-194.893c23.623-40.481,64.479-71.362,77.321-116.436,13.391-47-7.156-95.976-18.739-143.456s-9.255-107.439,32.488-132.858c38.819-23.64,88.537-3.9,129.382,16.039,24.6,12.007,70.85,47.085,98.443,46.143C565.869,249.91,582.257,221.169,618.073,231.118Z" transform="translate(-309.255 4202.639)" fill="#ff7000" opacity="0.08"/>
  </g>
</svg>
