<svg xmlns="http://www.w3.org/2000/svg" xmlns:xlink="http://www.w3.org/1999/xlink" width="1620" height="962" viewBox="0 0 1620 962">
  <defs>
    <clipPath id="clip-path">
      <rect id="Rectangle_438" data-name="Rectangle 438" width="1620" height="962" rx="71" transform="translate(150 1940)" fill="#f5f5f5"/>
    </clipPath>
    <linearGradient id="linear-gradient" x1="-0.279" y1="0.437" x2="0.5" y2="1" gradientUnits="objectBoundingBox">
      <stop offset="0" stop-color="#ff8a00"/>
      <stop offset="1" stop-color="#ff7000" stop-opacity="0.902"/>
    </linearGradient>
  </defs>
  <g id="how-works-bg-1" transform="translate(-150 -1940)" clip-path="url(#clip-path)">
    <path id="Path_293" data-name="Path 293" d="M720.543,141.758C779.212,22.312,917.414,95.607,906.7,235.037c-4.45,57.884-20.251,100.514,18.205,150.439,9.534,12.379,17.813,25.727,26.682,38.623,16.393,23.839,16.539,67.357-8.818,98.9-36.714,45.669-82.92,83.318-130.854,117.042-62.7,44.107-136.425,57.037-178.158-10.047-24.339-39.124-28.184-78.763-73.442-91.262-26.459-7.305-44.649-12.878-63.04-36.394-32.917-42.093-30.466-26.524-58.819-42.546-68.139-38.5-46.4-132.31,22.573-171.725,45.947-26.259,94.684-15.677,122.24-14.785C682.807,276.513,672.931,238.686,720.543,141.758Z" transform="matrix(0.07, 0.998, -0.998, 0.07, 615.983, 1988.691)" opacity="0.05" fill="url(#linear-gradient)"/>
  </g>
</svg>
