<svg xmlns="http://www.w3.org/2000/svg" width="255.333" height="119.685" viewBox="0 0 255.333 119.685">
  <g id="how-works-bg-2" transform="translate(1793.669 -306.911) rotate(90)" opacity="0.3">
    <ellipse id="Ellipse_530" data-name="Ellipse 530" cx="3.323" cy="3.323" rx="3.323" ry="3.323" transform="translate(419.95 1787.024)" fill="#ff7000"/>
    <ellipse id="Ellipse_531" data-name="Ellipse 531" cx="3.323" cy="3.323" rx="3.323" ry="3.323" transform="translate(397.342 1787.024)" fill="#ff7000"/>
    <ellipse id="Ellipse_532" data-name="Ellipse 532" cx="3.323" cy="3.323" rx="3.323" ry="3.323" transform="translate(374.734 1787.024)" fill="#ff7000"/>
    <ellipse id="Ellipse_533" data-name="Ellipse 533" cx="3.323" cy="3.323" rx="3.323" ry="3.323" transform="translate(352.126 1787.024)" fill="#ff7000"/>
    <ellipse id="Ellipse_534" data-name="Ellipse 534" cx="3.323" cy="3.323" rx="3.323" ry="3.323" transform="translate(329.518 1787.024)" fill="#ff7000"/>
    <ellipse id="Ellipse_535" data-name="Ellipse 535" cx="3.323" cy="3.323" rx="3.323" ry="3.323" transform="translate(306.91 1787.024)" fill="#ff7000"/>
    <ellipse id="Ellipse_536" data-name="Ellipse 536" cx="3.323" cy="3.323" rx="3.323" ry="3.323" transform="translate(419.95 1764.416)" fill="#ff7000"/>
    <ellipse id="Ellipse_537" data-name="Ellipse 537" cx="3.323" cy="3.323" rx="3.323" ry="3.323" transform="translate(397.342 1764.416)" fill="#ff7000"/>
    <ellipse id="Ellipse_538" data-name="Ellipse 538" cx="3.323" cy="3.323" rx="3.323" ry="3.323" transform="translate(374.734 1764.416)" fill="#ff7000"/>
    <ellipse id="Ellipse_539" data-name="Ellipse 539" cx="3.323" cy="3.323" rx="3.323" ry="3.323" transform="translate(352.126 1764.416)" fill="#ff7000"/>
    <ellipse id="Ellipse_540" data-name="Ellipse 540" cx="3.323" cy="3.323" rx="3.323" ry="3.323" transform="translate(329.518 1764.416)" fill="#ff7000"/>
    <ellipse id="Ellipse_541" data-name="Ellipse 541" cx="3.323" cy="3.323" rx="3.323" ry="3.323" transform="translate(306.91 1764.416)" fill="#ff7000"/>
    <ellipse id="Ellipse_542" data-name="Ellipse 542" cx="3.323" cy="3.323" rx="3.323" ry="3.323" transform="translate(419.95 1741.808)" fill="#ff7000"/>
    <ellipse id="Ellipse_543" data-name="Ellipse 543" cx="3.323" cy="3.323" rx="3.323" ry="3.323" transform="translate(397.342 1741.808)" fill="#ff7000"/>
    <ellipse id="Ellipse_544" data-name="Ellipse 544" cx="3.323" cy="3.323" rx="3.323" ry="3.323" transform="translate(374.734 1741.808)" fill="#ff7000"/>
    <ellipse id="Ellipse_545" data-name="Ellipse 545" cx="3.323" cy="3.323" rx="3.323" ry="3.323" transform="translate(352.126 1741.808)" fill="#ff7000"/>
    <ellipse id="Ellipse_546" data-name="Ellipse 546" cx="3.323" cy="3.323" rx="3.323" ry="3.323" transform="translate(329.518 1741.808)" fill="#ff7000"/>
    <ellipse id="Ellipse_547" data-name="Ellipse 547" cx="3.323" cy="3.323" rx="3.323" ry="3.323" transform="translate(306.91 1741.808)" fill="#ff7000"/>
    <ellipse id="Ellipse_548" data-name="Ellipse 548" cx="3.323" cy="3.323" rx="3.323" ry="3.323" transform="translate(419.95 1719.2)" fill="#ff7000"/>
    <ellipse id="Ellipse_549" data-name="Ellipse 549" cx="3.323" cy="3.323" rx="3.323" ry="3.323" transform="translate(397.342 1719.2)" fill="#ff7000"/>
    <ellipse id="Ellipse_550" data-name="Ellipse 550" cx="3.323" cy="3.323" rx="3.323" ry="3.323" transform="translate(374.734 1719.2)" fill="#ff7000"/>
    <ellipse id="Ellipse_551" data-name="Ellipse 551" cx="3.323" cy="3.323" rx="3.323" ry="3.323" transform="translate(352.126 1719.2)" fill="#ff7000"/>
    <ellipse id="Ellipse_552" data-name="Ellipse 552" cx="3.323" cy="3.323" rx="3.323" ry="3.323" transform="translate(329.518 1719.2)" fill="#ff7000"/>
    <ellipse id="Ellipse_553" data-name="Ellipse 553" cx="3.323" cy="3.323" rx="3.323" ry="3.323" transform="translate(306.91 1719.2)" fill="#ff7000"/>
    <ellipse id="Ellipse_554" data-name="Ellipse 554" cx="3.323" cy="3.323" rx="3.323" ry="3.323" transform="translate(419.95 1696.592)" fill="#ff7000"/>
    <ellipse id="Ellipse_555" data-name="Ellipse 555" cx="3.323" cy="3.323" rx="3.323" ry="3.323" transform="translate(397.342 1696.592)" fill="#ff7000"/>
    <ellipse id="Ellipse_556" data-name="Ellipse 556" cx="3.323" cy="3.323" rx="3.323" ry="3.323" transform="translate(374.734 1696.592)" fill="#ff7000"/>
    <ellipse id="Ellipse_557" data-name="Ellipse 557" cx="3.323" cy="3.323" rx="3.323" ry="3.323" transform="translate(352.126 1696.592)" fill="#ff7000"/>
    <ellipse id="Ellipse_558" data-name="Ellipse 558" cx="3.323" cy="3.323" rx="3.323" ry="3.323" transform="translate(329.518 1696.592)" fill="#ff7000"/>
    <ellipse id="Ellipse_559" data-name="Ellipse 559" cx="3.323" cy="3.323" rx="3.323" ry="3.323" transform="translate(306.91 1696.592)" fill="#ff7000"/>
    <ellipse id="Ellipse_560" data-name="Ellipse 560" cx="3.323" cy="3.323" rx="3.323" ry="3.323" transform="translate(419.95 1673.984)" fill="#ff7000"/>
    <ellipse id="Ellipse_561" data-name="Ellipse 561" cx="3.323" cy="3.323" rx="3.323" ry="3.323" transform="translate(397.342 1673.984)" fill="#ff7000"/>
    <ellipse id="Ellipse_562" data-name="Ellipse 562" cx="3.323" cy="3.323" rx="3.323" ry="3.323" transform="translate(374.734 1673.984)" fill="#ff7000"/>
    <ellipse id="Ellipse_563" data-name="Ellipse 563" cx="3.323" cy="3.323" rx="3.323" ry="3.323" transform="translate(352.126 1673.984)" fill="#ff7000"/>
    <ellipse id="Ellipse_564" data-name="Ellipse 564" cx="3.323" cy="3.323" rx="3.323" ry="3.323" transform="translate(329.518 1673.984)" fill="#ff7000"/>
    <ellipse id="Ellipse_565" data-name="Ellipse 565" cx="3.323" cy="3.323" rx="3.323" ry="3.323" transform="translate(306.91 1673.984)" fill="#ff7000"/>
    <ellipse id="Ellipse_566" data-name="Ellipse 566" cx="3.323" cy="3.323" rx="3.323" ry="3.323" transform="translate(419.95 1651.376)" fill="#ff7000"/>
    <ellipse id="Ellipse_567" data-name="Ellipse 567" cx="3.323" cy="3.323" rx="3.323" ry="3.323" transform="translate(397.342 1651.376)" fill="#ff7000"/>
    <ellipse id="Ellipse_568" data-name="Ellipse 568" cx="3.323" cy="3.323" rx="3.323" ry="3.323" transform="translate(374.734 1651.376)" fill="#ff7000"/>
    <ellipse id="Ellipse_569" data-name="Ellipse 569" cx="3.323" cy="3.323" rx="3.323" ry="3.323" transform="translate(352.126 1651.376)" fill="#ff7000"/>
    <ellipse id="Ellipse_570" data-name="Ellipse 570" cx="3.323" cy="3.323" rx="3.323" ry="3.323" transform="translate(329.518 1651.376)" fill="#ff7000"/>
    <ellipse id="Ellipse_571" data-name="Ellipse 571" cx="3.323" cy="3.323" rx="3.323" ry="3.323" transform="translate(306.91 1651.376)" fill="#ff7000"/>
    <ellipse id="Ellipse_572" data-name="Ellipse 572" cx="3.323" cy="3.323" rx="3.323" ry="3.323" transform="translate(419.95 1628.768)" fill="#ff7000"/>
    <ellipse id="Ellipse_573" data-name="Ellipse 573" cx="3.323" cy="3.323" rx="3.323" ry="3.323" transform="translate(397.342 1628.768)" fill="#ff7000"/>
    <ellipse id="Ellipse_574" data-name="Ellipse 574" cx="3.323" cy="3.323" rx="3.323" ry="3.323" transform="translate(374.734 1628.768)" fill="#ff7000"/>
    <ellipse id="Ellipse_575" data-name="Ellipse 575" cx="3.323" cy="3.323" rx="3.323" ry="3.323" transform="translate(352.126 1628.768)" fill="#ff7000"/>
    <ellipse id="Ellipse_576" data-name="Ellipse 576" cx="3.323" cy="3.323" rx="3.323" ry="3.323" transform="translate(329.518 1628.768)" fill="#ff7000"/>
    <ellipse id="Ellipse_577" data-name="Ellipse 577" cx="3.323" cy="3.323" rx="3.323" ry="3.323" transform="translate(306.91 1628.768)" fill="#ff7000"/>
    <ellipse id="Ellipse_578" data-name="Ellipse 578" cx="3.323" cy="3.323" rx="3.323" ry="3.323" transform="translate(419.95 1606.16)" fill="#ff7000"/>
    <ellipse id="Ellipse_579" data-name="Ellipse 579" cx="3.323" cy="3.323" rx="3.323" ry="3.323" transform="translate(397.342 1606.16)" fill="#ff7000"/>
    <ellipse id="Ellipse_580" data-name="Ellipse 580" cx="3.323" cy="3.323" rx="3.323" ry="3.323" transform="translate(374.734 1606.16)" fill="#ff7000"/>
    <ellipse id="Ellipse_581" data-name="Ellipse 581" cx="3.323" cy="3.323" rx="3.323" ry="3.323" transform="translate(352.126 1606.16)" fill="#ff7000"/>
    <ellipse id="Ellipse_582" data-name="Ellipse 582" cx="3.323" cy="3.323" rx="3.323" ry="3.323" transform="translate(329.518 1606.16)" fill="#ff7000"/>
    <ellipse id="Ellipse_583" data-name="Ellipse 583" cx="3.323" cy="3.323" rx="3.323" ry="3.323" transform="translate(306.91 1606.16)" fill="#ff7000"/>
    <ellipse id="Ellipse_584" data-name="Ellipse 584" cx="3.323" cy="3.323" rx="3.323" ry="3.323" transform="translate(419.95 1583.552)" fill="#ff7000"/>
    <ellipse id="Ellipse_585" data-name="Ellipse 585" cx="3.323" cy="3.323" rx="3.323" ry="3.323" transform="translate(397.342 1583.552)" fill="#ff7000"/>
    <ellipse id="Ellipse_586" data-name="Ellipse 586" cx="3.323" cy="3.323" rx="3.323" ry="3.323" transform="translate(374.734 1583.552)" fill="#ff7000"/>
    <ellipse id="Ellipse_587" data-name="Ellipse 587" cx="3.323" cy="3.323" rx="3.323" ry="3.323" transform="translate(352.126 1583.552)" fill="#ff7000"/>
    <ellipse id="Ellipse_588" data-name="Ellipse 588" cx="3.323" cy="3.323" rx="3.323" ry="3.323" transform="translate(329.518 1583.552)" fill="#ff7000"/>
    <ellipse id="Ellipse_589" data-name="Ellipse 589" cx="3.323" cy="3.323" rx="3.323" ry="3.323" transform="translate(306.91 1583.552)" fill="#ff7000"/>
    <ellipse id="Ellipse_590" data-name="Ellipse 590" cx="3.323" cy="3.323" rx="3.323" ry="3.323" transform="translate(419.95 1560.945)" fill="#ff7000"/>
    <ellipse id="Ellipse_591" data-name="Ellipse 591" cx="3.323" cy="3.323" rx="3.323" ry="3.323" transform="translate(397.342 1560.945)" fill="#ff7000"/>
    <ellipse id="Ellipse_592" data-name="Ellipse 592" cx="3.323" cy="3.323" rx="3.323" ry="3.323" transform="translate(374.734 1560.945)" fill="#ff7000"/>
    <ellipse id="Ellipse_593" data-name="Ellipse 593" cx="3.323" cy="3.323" rx="3.323" ry="3.323" transform="translate(352.126 1560.945)" fill="#ff7000"/>
    <ellipse id="Ellipse_594" data-name="Ellipse 594" cx="3.323" cy="3.323" rx="3.323" ry="3.323" transform="translate(329.518 1560.945)" fill="#ff7000"/>
    <ellipse id="Ellipse_595" data-name="Ellipse 595" cx="3.323" cy="3.323" rx="3.323" ry="3.323" transform="translate(306.91 1560.945)" fill="#ff7000"/>
    <ellipse id="Ellipse_596" data-name="Ellipse 596" cx="3.323" cy="3.323" rx="3.323" ry="3.323" transform="translate(419.95 1538.337)" fill="#ff7000"/>
    <ellipse id="Ellipse_597" data-name="Ellipse 597" cx="3.323" cy="3.323" rx="3.323" ry="3.323" transform="translate(397.342 1538.337)" fill="#ff7000"/>
    <ellipse id="Ellipse_598" data-name="Ellipse 598" cx="3.323" cy="3.323" rx="3.323" ry="3.323" transform="translate(374.734 1538.337)" fill="#ff7000"/>
    <ellipse id="Ellipse_599" data-name="Ellipse 599" cx="3.323" cy="3.323" rx="3.323" ry="3.323" transform="translate(352.126 1538.337)" fill="#ff7000"/>
    <ellipse id="Ellipse_600" data-name="Ellipse 600" cx="3.323" cy="3.323" rx="3.323" ry="3.323" transform="translate(329.518 1538.337)" fill="#ff7000"/>
    <ellipse id="Ellipse_601" data-name="Ellipse 601" cx="3.323" cy="3.323" rx="3.323" ry="3.323" transform="translate(306.91 1538.337)" fill="#ff7000"/>
  </g>
</svg>
